<?xml version="1.0" standalone="no"?>
<!DOCTYPE svg PUBLIC "-//W3C//DTD SVG 20010904//EN"
 "http://www.w3.org/TR/2001/REC-SVG-20010904/DTD/svg10.dtd">
<svg version="1.0" xmlns="http://www.w3.org/2000/svg"
 width="500.000000pt" height="500.000000pt" viewBox="0 0 500.000000 500.000000"
 preserveAspectRatio="xMidYMid meet">
<metadata>
Created by potrace 1.16, written by Peter Selinger 2001-2019
</metadata>
<g transform="translate(0.000000,500.000000) scale(0.100000,-0.100000)"
fill="#000000" stroke="none">
<path d="M2117 3864 c-279 -50 -549 -220 -710 -445 -59 -83 -138 -249 -169
-354 -21 -72 -23 -100 -23 -280 0 -176 3 -210 23 -282 97 -355 354 -640 684
-758 146 -52 234 -67 391 -66 76 1 141 2 145 3 4 1 26 -1 49 -5 39 -7 44 -12
74 -68 32 -59 90 -119 116 -119 17 0 19 -5 -27 94 -22 47 -40 89 -40 91 0 3
17 5 38 5 35 0 44 -7 116 -85 69 -76 90 -92 178 -136 55 -28 103 -49 108 -47
10 4 -60 120 -106 176 -39 47 -126 96 -155 89 -11 -3 -17 -1 -13 4 3 5 -3 9
-13 9 -11 1 -5 7 16 15 25 11 57 14 130 9 l96 -6 83 41 c50 25 82 46 80 53 -6
17 -72 36 -124 37 -61 1 -151 -34 -198 -77 -53 -49 -136 -76 -217 -70 l-59 4
20 -21 c10 -11 26 -40 34 -63 13 -35 13 -42 1 -42 -7 0 -21 8 -31 17 -15 16
-15 17 2 24 17 7 17 8 -3 8 -27 1 -40 20 -22 32 10 6 8 9 -8 9 -24 0 -33 19
-10 21 6 1 1 5 -13 9 -21 7 -22 8 -5 9 34 2 240 86 306 126 35 21 86 56 113
77 27 21 51 38 55 38 3 0 40 -21 81 -45 43 -26 88 -46 107 -47 18 0 38 -1 45
-2 6 -1 13 4 15 10 2 7 -10 11 -36 9 -22 -1 -38 2 -35 7 3 5 -7 6 -23 3 -27
-5 -27 -5 -5 6 17 9 28 9 48 0 34 -15 43 -7 12 11 -32 17 -127 91 -128 99 0 3
18 14 40 24 40 18 42 18 95 -4 105 -43 178 -61 250 -59 l70 1 -85 7 c-47 5
-116 19 -155 33 -108 38 -108 39 -94 48 7 4 22 1 33 -6 14 -11 23 -12 33 -3 9
7 17 7 28 -2 8 -7 15 -9 15 -4 0 4 12 -3 27 -17 20 -17 23 -18 10 -3 -9 11
-17 26 -17 32 0 6 -9 9 -20 7 -11 -2 -22 0 -25 5 -7 11 72 6 83 -5 4 -5 1 -5
-6 -1 -11 7 -11 4 0 -13 10 -17 14 -18 21 -6 4 8 5 20 2 25 -15 24 4 7 21 -17
17 -27 17 -28 -2 -13 -18 14 -18 14 -5 -3 10 -13 17 -15 27 -6 8 6 14 8 14 3
0 -4 5 -3 12 4 9 9 16 6 31 -16 11 -15 16 -19 13 -8 -6 18 -5 18 18 2 14 -9
27 -12 30 -8 6 10 -55 46 -112 66 -22 8 -83 16 -135 18 l-95 3 28 35 c20 25
44 41 82 53 29 9 70 27 90 39 36 23 148 165 148 188 0 17 -88 7 -132 -16 -63
-31 -126 -103 -154 -176 -20 -53 -37 -78 -83 -120 -31 -29 -72 -58 -89 -65
-32 -11 -32 -11 17 45 198 232 288 510 261 814 -44 503 -415 905 -914 993
-108 18 -264 18 -369 -1z m453 -39 c592 -150 945 -764 775 -1349 -30 -105 -87
-222 -156 -322 -49 -70 -99 -126 -99 -109 0 5 -12 -2 -26 -16 l-27 -24 16 25
c8 14 27 61 42 105 15 44 32 89 37 100 9 20 9 20 -6 1 -9 -11 -16 -16 -16 -10
-1 23 -20 -24 -21 -51 0 -26 -2 -27 -9 -10 -9 22 -8 25 -15 -50 -1 -11 -3 -29
-4 -40 l-2 -20 -9 20 c-7 17 -9 14 -10 -15 -2 -32 -3 -33 -9 -10 -7 23 -9 21
-18 -20 l-11 -45 -1 51 c-2 87 22 146 81 199 28 25 60 51 71 57 24 12 25 17
-28 -126 -19 -54 -34 -104 -32 -110 2 -6 16 25 30 69 14 44 34 101 43 127 10
26 16 50 12 53 -10 11 -66 -23 -112 -68 -50 -48 -76 -117 -76 -204 0 -63 -9
-74 -111 -133 -40 -24 -92 -61 -116 -83 -24 -22 -52 -41 -61 -42 -9 -1 -33 -9
-52 -19 -28 -15 -21 -5 35 47 44 42 64 66 53 67 -9 0 -26 -12 -38 -27 l-21
-28 5 25 c5 22 4 22 -8 -4 -9 -21 -15 -25 -19 -15 -4 8 -6 5 -4 -7 1 -11 -2
-21 -6 -22 -5 0 -15 -9 -23 -19 -13 -17 -14 -17 -8 2 4 16 3 16 -9 -3 -12 -21
-15 -21 -26 -8 -11 12 -8 21 15 51 35 47 92 75 163 82 l56 5 -65 -62 -65 -62
73 58 c39 32 72 62 72 66 0 12 -78 10 -125 -3 -55 -15 -101 -52 -140 -113 -18
-29 -39 -57 -47 -63 -19 -16 -236 -30 -333 -21 -170 16 -376 97 -520 205 -198
149 -333 343 -399 575 -180 630 233 1265 889 1368 105 16 297 4 415 -25z
m1000 -1440 c0 -17 -117 -158 -145 -175 -52 -32 -49 -24 13 38 61 60 128 146
84 108 -12 -11 -22 -15 -22 -10 0 5 -8 -6 -17 -25 -15 -29 -18 -31 -24 -15 -7
16 -8 16 -9 -6 -1 -23 -2 -24 -11 -5 -8 17 -9 16 -4 -6 3 -17 -1 -31 -10 -39
-13 -11 -14 -8 -10 21 5 33 5 33 -7 -4 -7 -22 -16 -36 -20 -32 -3 4 -9 -4 -13
-16 l-7 -22 -13 23 -12 23 -7 -29 c-6 -22 -9 -25 -17 -13 -12 20 -11 32 3 23
7 -5 8 -3 3 5 -9 15 75 104 120 128 50 27 125 43 125 28z m-786 -727 c4 3 4
-1 1 -9 -4 -11 0 -16 12 -16 23 0 36 19 20 29 -26 16 14 8 51 -11 62 -32 109
-84 166 -184 l27 -48 -88 45 c-63 31 -106 62 -151 107 -71 71 -97 108 -64 90
11 -6 22 -7 26 -3z"/>
<path d="M2000 2776 c0 -399 0 -406 20 -406 19 0 20 8 22 371 l3 372 243 -372
c209 -318 247 -371 268 -371 l24 0 0 405 0 405 -25 0 -25 0 -2 -364 -3 -365
-236 362 c-203 310 -240 362 -263 365 l-26 3 0 -405z"/>
</g>
</svg>
